<svg width="36" height="37" viewBox="0 0 36 37" fill="none" xmlns="http://www.w3.org/2000/svg">
<path d="M16.3639 14.2064V15.8427H14.7275V18.2973H16.3639V25.6609H19.6366V18.2973H21.813L22.0912 15.8427H19.6366V14.4109C19.6366 13.7482 19.7021 13.3964 20.7248 13.3964H22.0912V10.9336H19.8985C17.2803 10.9337 16.3639 12.1609 16.3639 14.2064Z" fill="white"/>
<path d="M18 0.296875C8.05887 0.296875 0 8.35574 0 18.2969C0 28.238 8.05887 36.2969 18 36.2969C27.9411 36.2969 36 28.238 36 18.2969C36 8.35574 27.9411 0.296875 18 0.296875ZM18 34.6605C8.96259 34.6605 1.63638 27.3343 1.63638 18.2969C1.63638 9.25947 8.96259 1.93326 18 1.93326C27.0374 1.93326 34.3636 9.25947 34.3636 18.2969C34.3636 27.3343 27.0374 34.6605 18 34.6605Z" fill="white"/>
</svg>
