<svg width="24" height="25" viewBox="0 0 24 25" fill="none" xmlns="http://www.w3.org/2000/svg">
<g clip-path="url(#clip0_33_2859)">
<path fill-rule="evenodd" clip-rule="evenodd" d="M8.9858 11.7386C9.42085 11.3036 10.1325 11.3036 10.5675 11.7386L11.7007 12.8719L14.7669 9.80568C15.2019 9.37071 15.9136 9.37071 16.3486 9.80568C16.7836 10.2406 16.7836 10.9524 16.3486 11.3874L12.5134 15.2226C11.9589 15.7771 11.2171 15.5517 10.7254 15.06L8.9857 13.3204C8.55074 12.8853 8.55083 12.1736 8.9858 11.7386ZM22.6451 10.2454C22.3944 9.19132 21.9765 8.18428 21.4083 7.26172L22.2689 5.32391L19.9844 3.0394L18.046 3.90028C17.1235 3.33227 16.117 2.91447 15.063 2.66362L14.3017 0.685547H11.071L10.3095 2.66362C9.25567 2.91447 8.2491 3.33227 7.32663 3.90028L5.38827 3.0394L3.10376 5.324L3.96455 7.26218C3.39644 8.18465 2.97865 9.19141 2.72788 10.2454L0.75 11.0067V14.2375L2.72761 14.9987C2.97847 16.0528 3.39626 17.0598 3.96445 17.9824L3.10385 19.9201L5.38836 22.2046L7.32673 21.3437C8.24919 21.9117 9.25567 22.3295 10.3096 22.5803L11.071 24.5584H14.3018L15.0629 22.5808C16.1171 22.33 17.124 21.9121 18.0466 21.3439L19.9844 22.2046L22.2689 19.92L21.408 17.9816C21.9759 17.0592 22.3938 16.0527 22.6446 14.9988L24.6225 14.2374V11.0066L22.6451 10.2454ZM12.6672 18.8528C9.16584 18.8528 6.32744 16.0144 6.32744 12.5131C6.32744 9.01164 9.16584 6.17325 12.6672 6.17325C16.1685 6.17325 19.007 9.01164 19.007 12.5131C19.007 16.0144 16.1685 18.8528 12.6672 18.8528Z" fill="url(#paint0_linear_33_2859)"/>
</g>
<defs>
<linearGradient id="paint0_linear_33_2859" x1="12.6863" y1="0.685547" x2="12.6863" y2="24.5584" gradientUnits="userSpaceOnUse">
<stop stop-color="#0888B8"/>
<stop offset="1" stop-color="#25A57E"/>
</linearGradient>
<clipPath id="clip0_33_2859">
<rect width="24" height="24" fill="white" transform="translate(0 0.296875)"/>
</clipPath>
</defs>
</svg>
