<svg width="553" height="221" viewBox="0 0 553 221" fill="none" xmlns="http://www.w3.org/2000/svg">
<path d="M439.366 221V0H553V221H439.366ZM448.434 179.342H541.34L545.042 142.183L523.944 140.227L520.242 157.047H486.189V126.537H536.899V104.437H486.189V74.5142H519.132L522.833 91.3336L543.931 89.3779L540.23 52.2186H448.434V74.5142H461.389V157.047H448.434V179.342Z" fill="black"/>
<path d="M272.729 221V0H442.995V221H272.729ZM420.601 74.5142H435.407V52.2186H399.503L359.342 131.035H358.602L315.85 52.2186H280.316V74.5142H295.122V157.047H282.167V179.342H329.731V157.047H318.256V106.197H318.997L353.05 168.977H363.414L395.061 108.544H395.802V157.047H385.252V179.342H433.556V157.047H420.601V74.5142Z" fill="black"/>
<path d="M140.973 221V0H276.446V221H140.973ZM270.153 115.585C270.153 97.7224 264.724 82.4024 253.867 69.6248C243.133 56.7168 228.142 50.2628 208.894 50.2628C190.017 50.2628 175.026 56.5864 163.922 69.2336C152.818 81.8808 147.265 97.4617 147.265 115.976C147.265 133.708 152.509 149.028 162.996 161.936C173.484 174.844 188.536 181.298 208.154 181.298C227.648 181.298 242.824 174.844 253.682 161.936C264.663 149.028 270.153 133.578 270.153 115.585ZM243.318 116.367C243.318 128.754 240.603 138.858 235.175 146.681C229.746 154.374 221.171 158.22 209.45 158.22C196.741 158.22 187.673 153.983 182.244 145.508C176.815 137.033 174.101 126.993 174.101 115.389C174.101 103.394 176.877 93.4198 182.429 85.4664C187.981 77.3826 196.741 73.3407 208.709 73.3407C219.937 73.3407 228.512 77.1218 234.434 84.6841C240.357 92.2463 243.318 102.807 243.318 116.367Z" fill="black"/>
<path d="M0 221V0H144.726V221H0ZM84.7631 179.342H135.473V157.047H122.518V74.5142H135.473V52.2186H84.7631V74.5142H97.7181V103.85H46.8233V74.5142H59.7783V52.2186H9.06854V74.5142H22.0236V157.047H9.06854V179.342H59.7783V157.047H46.8233V125.95H97.7181V157.047H84.7631V179.342Z" fill="black"/>
</svg>
