<svg width="32" height="33" viewBox="0 0 32 33" fill="none" xmlns="http://www.w3.org/2000/svg">
<g clip-path="url(#clip0_33_2947)">
<path d="M23.3378 0.296875H8.66209C3.88574 0.296875 0 4.18261 0 8.95897V23.635C0 28.4111 3.88574 32.2968 8.66209 32.2968H23.3381C28.1142 32.2968 31.9999 28.4111 31.9999 23.635V8.95897C31.9999 4.18261 28.1142 0.296875 23.3378 0.296875ZM30.124 23.635C30.124 27.3767 27.0798 30.4208 23.3378 30.4208H8.66209C4.92016 30.4208 1.87597 27.3767 1.87597 23.635V8.95897C1.87597 5.21703 4.92016 2.17285 8.66209 2.17285H23.3381C27.0798 2.17285 30.124 5.21703 30.124 8.95897V23.635Z" fill="white"/>
<path d="M15.9997 7.54688C11.175 7.54688 7.25 11.4719 7.25 16.2966C7.25 21.1213 11.175 25.0464 15.9997 25.0464C20.8244 25.0464 24.7495 21.1213 24.7495 16.2966C24.7495 11.4719 20.8244 7.54688 15.9997 7.54688ZM15.9997 23.1704C12.2097 23.1704 9.12597 20.0869 9.12597 16.2966C9.12597 12.5066 12.2097 9.42285 15.9997 9.42285C19.79 9.42285 22.8735 12.5066 22.8735 16.2966C22.8735 20.0869 19.79 23.1704 15.9997 23.1704Z" fill="white"/>
<path d="M24.9585 4.43945C23.5327 4.43945 22.373 5.59936 22.373 7.0249C22.373 8.45068 23.5327 9.61059 24.9585 9.61059C26.3843 9.61059 27.5442 8.45068 27.5442 7.0249C27.5442 5.59912 26.3843 4.43945 24.9585 4.43945ZM24.9585 7.73437C24.5674 7.73437 24.249 7.41601 24.249 7.0249C24.249 6.63354 24.5674 6.31543 24.9585 6.31543C25.3498 6.31543 25.6682 6.63354 25.6682 7.0249C25.6682 7.41601 25.3498 7.73437 24.9585 7.73437Z" fill="white"/>
</g>
<defs>
<clipPath id="clip0_33_2947">
<rect width="32" height="32" fill="white" transform="translate(0 0.296875)"/>
</clipPath>
</defs>
</svg>
