<svg width="140" height="23" viewBox="0 0 140 23" fill="none" xmlns="http://www.w3.org/2000/svg">
<g clip-path="url(#clip0_2_2)">
<rect width="140" height="23" fill="white"/>
<rect width="140" height="23" fill="#F9F1E1"/>
<path d="M76.1094 20.0703C75.3516 20.0703 74.8086 19.9805 74.4805 19.8008C74.1602 19.6211 74 19.4219 74 19.2031C74 18.9766 74.207 18.7539 74.6211 18.5352C75.0352 18.3086 75.6328 18.1953 76.4141 18.1953C76.8203 18.1953 77.2578 18.2422 77.7266 18.3359C78.2031 18.4297 78.8477 18.5977 79.6602 18.8398C79.6836 18.8477 79.707 18.8555 79.7305 18.8633C79.7539 18.8633 79.7812 18.8711 79.8125 18.8867C80.625 18.4414 81.5352 17.7266 82.543 16.7422C83.5586 15.7578 84.8086 14.3672 86.293 12.5703C86.9648 11.7578 87.6211 10.9688 88.2617 10.2031C88.9023 9.4375 89.6562 8.65234 90.5234 7.84766C91.0312 7.36328 91.6055 6.90625 92.2461 6.47656C91.6992 5.63281 90.9492 5.01953 89.9961 4.63672C89.043 4.25391 87.9609 4.0625 86.75 4.0625C85.8203 4.0625 84.918 4.21875 84.043 4.53125C83.168 4.83594 82.3516 5.24609 81.5938 5.76172C80.8438 6.26953 80.1836 6.83594 79.6133 7.46094C79.043 8.08594 78.5977 8.71875 78.2773 9.35938C77.9648 9.99219 77.8086 10.582 77.8086 11.1289C77.8086 11.6914 78 12.1445 78.3828 12.4883C78.7734 12.832 79.3242 13.0039 80.0352 13.0039C80.5195 13.0039 81.0781 12.875 81.7109 12.6172C82.3438 12.3516 82.9922 11.9922 83.6562 11.5391C84.3203 11.0859 84.9375 10.5703 85.5078 9.99219C86.0859 9.41406 86.5586 8.80469 86.9258 8.16406C87.3008 7.52344 87.5078 6.88672 87.5469 6.25391C87.5703 6.07422 87.6133 5.98438 87.6758 5.98438C87.7695 5.98438 87.8164 6.06641 87.8164 6.23047C87.8164 7.07422 87.6016 7.91797 87.1719 8.76172C86.7422 9.59766 86.1562 10.3594 85.4141 11.0469C84.6797 11.7344 83.8438 12.2891 82.9062 12.7109C81.9766 13.125 81.0078 13.332 80 13.332C79.5234 13.332 79.0625 13.2305 78.6172 13.0273C78.1797 12.8164 77.8203 12.5273 77.5391 12.1602C77.2656 11.7852 77.1289 11.3516 77.1289 10.8594C77.1289 9.98438 77.375 9.12891 77.8672 8.29297C78.3594 7.44922 79.043 6.6875 79.918 6.00781C80.793 5.32812 81.8086 4.78906 82.9648 4.39062C84.1211 3.98437 85.3594 3.78125 86.6797 3.78125C88.0312 3.78125 89.2148 3.99219 90.2305 4.41406C91.2461 4.83594 92.0625 5.42969 92.6797 6.19531C93.4453 5.71094 94.25 5.30078 95.0938 4.96484C95.9453 4.62891 96.7383 4.44531 97.4727 4.41406C97.5898 4.41406 97.6484 4.45312 97.6484 4.53125C97.6484 4.57812 97.6289 4.61328 97.5898 4.63672C97.5508 4.65234 97.4414 4.67578 97.2617 4.70703C96.5586 4.79297 95.8516 5.01562 95.1406 5.375C94.4375 5.73438 93.75 6.20313 93.0781 6.78125C93.6562 7.74219 93.9453 8.86719 93.9453 10.1562C93.9453 11.5938 93.668 12.9141 93.1133 14.1172C92.5664 15.3203 91.8164 16.3633 90.8633 17.2461C89.918 18.1289 88.8438 18.8125 87.6406 19.2969C86.4453 19.7812 85.1992 20.0234 83.9023 20.0234C83.3164 20.0234 82.7539 19.9766 82.2148 19.8828C81.6758 19.7891 81.0391 19.6367 80.3047 19.4258C79.0391 19.8555 77.6406 20.0703 76.1094 20.0703ZM83.9609 19.6719C85.1094 19.6719 86.2305 19.4375 87.3242 18.9688C88.4258 18.5 89.418 17.8438 90.3008 17C91.1836 16.1484 91.8867 15.1445 92.4102 13.9883C92.9336 12.832 93.1953 11.5703 93.1953 10.2031C93.1953 9.02344 93.0039 8.01562 92.6211 7.17969C91.7305 8.01562 90.8711 9.03125 90.043 10.2266C89.1445 11.5234 88.2422 12.7617 87.3359 13.9414C86.4297 15.1133 85.4531 16.1562 84.4062 17.0703C83.3594 17.9766 82.1758 18.6914 80.8555 19.2148C81.2617 19.3398 81.707 19.4492 82.1914 19.543C82.6836 19.6289 83.2734 19.6719 83.9609 19.6719ZM76.3086 19.6953C76.8398 19.6953 77.3438 19.6602 77.8203 19.5898C78.3047 19.5117 78.793 19.3633 79.2852 19.1445C78.7695 19.0117 78.2734 18.9062 77.7969 18.8281C77.3281 18.7422 76.8398 18.6992 76.332 18.6992C75.668 18.6992 75.168 18.75 74.832 18.8516C74.4961 18.9531 74.3281 19.0703 74.3281 19.2031C74.3281 19.5312 74.9883 19.6953 76.3086 19.6953ZM95.1992 20.0703C94.4336 20.0703 93.8867 19.8711 93.5586 19.4727C93.2305 19.0742 93.0586 18.5859 93.043 18.0078C93.0352 17.5859 93.1211 17.1172 93.3008 16.6016C93.4805 16.0859 93.668 15.6914 93.8633 15.418C94.4414 14.6133 95.0664 13.957 95.7383 13.4492C96.4102 12.9414 97.0664 12.5703 97.707 12.3359C98.3555 12.0938 98.9258 11.9727 99.418 11.9727C99.8945 11.9727 100.227 12.0508 100.414 12.207C100.609 12.3633 100.711 12.543 100.719 12.7461C100.742 13.0508 100.578 13.4062 100.227 13.8125C99.8828 14.2109 99.2773 14.6445 98.4102 15.1133C97.543 15.582 96.332 16.0742 94.7773 16.5898C94.5039 17.0273 94.3203 17.4062 94.2266 17.7266C94.1328 18.0391 94.0859 18.3203 94.0859 18.5703C94.0859 18.9375 94.207 19.2227 94.4492 19.4258C94.6992 19.6289 94.9922 19.7305 95.3281 19.7305C96.0625 19.7305 96.75 19.5938 97.3906 19.3203C98.0391 19.0391 98.6289 18.6875 99.1602 18.2656C99.6992 17.8438 100.172 17.418 100.578 16.9883C100.984 16.5508 101.316 16.1719 101.574 15.8516C101.832 15.5234 102.004 15.3203 102.09 15.2422L102.336 15.4414C102.219 15.543 102.02 15.7656 101.738 16.1094C101.465 16.4531 101.113 16.8477 100.684 17.293C100.262 17.7383 99.7734 18.1719 99.2188 18.5938C98.6641 19.0156 98.0469 19.3672 97.3672 19.6484C96.6953 19.9297 95.9727 20.0703 95.1992 20.0703ZM95.0469 16.1797C96.5625 15.6484 97.7578 15.1016 98.6328 14.5391C99.5078 13.9688 99.9453 13.4258 99.9453 12.9102C99.9453 12.4727 99.7422 12.2539 99.3359 12.2539C98.8125 12.2539 98.2461 12.5352 97.6367 13.0977C97.0273 13.6602 96.3164 14.4766 95.5039 15.5469C95.332 15.7656 95.1797 15.9766 95.0469 16.1797ZM103.215 20.0703C102.387 20.0703 101.773 19.8672 101.375 19.4609C100.984 19.0469 100.789 18.5469 100.789 17.9609C100.789 17.4531 100.906 16.918 101.141 16.3555C101.383 15.7852 101.75 15.207 102.242 14.6211C103.094 13.6211 103.992 12.9258 104.938 12.5352C105.891 12.1367 106.711 11.9492 107.398 11.9727C107.922 11.9883 108.285 12.1133 108.488 12.3477C108.699 12.5742 108.809 12.8125 108.816 13.0625C108.832 13.3984 108.703 13.6992 108.43 13.9648C108.164 14.2227 107.879 14.3516 107.574 14.3516C107.395 14.3516 107.223 14.293 107.059 14.1758C106.902 14.0586 106.82 13.8867 106.812 13.6602C106.805 13.4414 106.887 13.2578 107.059 13.1094C107.238 12.9609 107.449 12.8828 107.691 12.875C107.879 12.8672 108.078 12.9102 108.289 13.0039V12.957C108.289 12.7539 108.219 12.5898 108.078 12.4648C107.945 12.3398 107.719 12.2773 107.398 12.2773C106.875 12.2773 106.246 12.5664 105.512 13.1445C104.785 13.7227 103.961 14.6133 103.039 15.8164C102.609 16.3867 102.316 16.8906 102.16 17.3281C102.004 17.7578 101.926 18.1445 101.926 18.4883C101.926 18.8242 102.051 19.1172 102.301 19.3672C102.559 19.6094 102.887 19.7305 103.285 19.7305C103.988 19.7305 104.656 19.6016 105.289 19.3438C105.93 19.0859 106.516 18.7617 107.047 18.3711C107.586 17.9727 108.066 17.5625 108.488 17.1406C108.91 16.7188 109.258 16.3359 109.531 15.9922C109.805 15.6484 109.996 15.4062 110.105 15.2656C110.145 15.2188 110.207 15.2266 110.293 15.2891C110.379 15.3438 110.402 15.3945 110.363 15.4414C110.262 15.5977 110.066 15.8555 109.777 16.2148C109.488 16.5664 109.121 16.9609 108.676 17.3984C108.238 17.8359 107.734 18.2578 107.164 18.6641C106.602 19.0703 105.984 19.4062 105.312 19.6719C104.648 19.9375 103.949 20.0703 103.215 20.0703ZM110.797 20.0234C110.141 20.0234 109.656 19.875 109.344 19.5781C109.031 19.2734 108.855 18.9023 108.816 18.4648C108.793 17.9336 108.902 17.3633 109.145 16.7539C109.395 16.1445 109.664 15.6328 109.953 15.2188C110.336 14.6797 110.801 14.1641 111.348 13.6719C111.895 13.1719 112.492 12.7656 113.141 12.4531C113.797 12.1328 114.469 11.9727 115.156 11.9727C115.57 11.9727 115.926 12.082 116.223 12.3008C116.527 12.5117 116.695 12.8516 116.727 13.3203C116.766 13.9844 116.637 14.6836 116.34 15.418C116.043 16.1445 115.641 16.8203 115.133 17.4453C115.188 17.6719 115.363 17.7852 115.66 17.7852C115.949 17.7852 116.266 17.6719 116.609 17.4453C116.953 17.2109 117.285 16.9375 117.605 16.625C117.934 16.3125 118.215 16.0234 118.449 15.7578C118.684 15.4922 118.84 15.3203 118.918 15.2422L119.176 15.4414C119.027 15.582 118.816 15.8008 118.543 16.0977C118.27 16.3867 117.965 16.6875 117.629 17C117.301 17.3047 116.961 17.5664 116.609 17.7852C116.266 18.0039 115.941 18.1133 115.637 18.1133C115.262 18.1133 115.008 17.9961 114.875 17.7617C114.297 18.418 113.645 18.9609 112.918 19.3906C112.199 19.8125 111.492 20.0234 110.797 20.0234ZM111.102 19.6719C111.375 19.6719 111.691 19.5938 112.051 19.4375C112.41 19.2812 112.77 19.0742 113.129 18.8164C113.73 18.3867 114.273 17.8828 114.758 17.3047V17.2578C114.758 16.7734 114.883 16.3906 115.133 16.1094C115.391 15.8203 115.641 15.6367 115.883 15.5586C116.266 14.7617 116.438 14.0469 116.398 13.4141C116.375 13.0312 116.273 12.7656 116.094 12.6172C115.922 12.4688 115.73 12.3945 115.52 12.3945C115.066 12.3945 114.508 12.6641 113.844 13.2031C113.188 13.7344 112.453 14.5039 111.641 15.5117C111.062 16.2383 110.656 16.8516 110.422 17.3516C110.195 17.8516 110.098 18.2852 110.129 18.6523C110.129 18.8633 110.199 19.0859 110.34 19.3203C110.488 19.5547 110.742 19.6719 111.102 19.6719ZM120.805 20.0234C120.367 20.0234 120.012 19.9141 119.738 19.6953C119.465 19.4688 119.328 19.1758 119.328 18.8164C119.328 18.1914 119.785 17.4375 120.699 16.5547C121.613 15.6719 122.852 14.707 124.414 13.6602C123.617 13.5273 122.93 13.3945 122.352 13.2617C121.781 13.1289 121.324 12.9844 120.98 12.8281C120.824 13.1406 120.598 13.5234 120.301 13.9766C120.004 14.4297 119.625 14.918 119.164 15.4414C118.852 15.8086 118.617 16.0664 118.461 16.2148C118.305 16.3633 118.195 16.4531 118.133 16.4844C118.078 16.5078 118.047 16.5273 118.039 16.543C118.016 16.5508 118 16.5273 117.992 16.4727C117.992 16.418 117.996 16.375 118.004 16.3438C118.004 16.3125 118.062 16.2383 118.18 16.1211C118.297 16.0039 118.543 15.7109 118.918 15.2422C119.309 14.75 119.656 14.2812 119.961 13.8359C120.266 13.3906 120.5 13 120.664 12.6641C120.383 12.4844 120.219 12.2852 120.172 12.0664C120.109 11.6914 120.184 11.3516 120.395 11.0469C120.605 10.7422 120.879 10.5898 121.215 10.5898C121.629 10.5898 121.836 10.7695 121.836 11.1289C121.836 11.3086 121.801 11.4609 121.73 11.5859C121.66 11.7109 121.59 11.832 121.52 11.9492C121.379 12.1133 121.309 12.3203 121.309 12.5703C121.309 12.6484 121.441 12.7344 121.707 12.8281C121.98 12.9141 122.312 13 122.703 13.0859C123.102 13.1641 123.492 13.2344 123.875 13.2969C124.258 13.3516 124.559 13.3867 124.777 13.4023C124.926 13.4102 125.016 13.4375 125.047 13.4844C125.086 13.5234 125.105 13.5547 125.105 13.5781C125.105 13.6562 124.992 13.7852 124.766 13.9648C124.336 14.293 123.895 14.6914 123.441 15.1602C122.988 15.6211 122.566 16.1016 122.176 16.6016C121.785 17.0938 121.469 17.5586 121.227 17.9961C120.984 18.4336 120.863 18.793 120.863 19.0742C120.863 19.4414 121.012 19.625 121.309 19.625C121.691 19.625 122.109 19.4961 122.562 19.2383C123.016 18.9805 123.473 18.6562 123.934 18.2656C124.402 17.875 124.84 17.4727 125.246 17.0586C125.66 16.6367 126.016 16.2617 126.312 15.9336C126.609 15.5977 126.816 15.3672 126.934 15.2422L127.168 15.4414C126.996 15.6055 126.75 15.8672 126.43 16.2266C126.117 16.5781 125.75 16.9727 125.328 17.4102C124.906 17.8398 124.445 18.2539 123.945 18.6523C123.453 19.0508 122.941 19.3789 122.41 19.6367C121.879 19.8945 121.344 20.0234 120.805 20.0234Z" fill="#CF9800"/>
<path d="M-0.3 23.26V0.659999H3.86V23.26H-0.3ZM3.35469 23.26V0.659999H18.9947V23.26H3.35469ZM12.5147 19H17.9947V16.72H16.5947V8.28H17.9947V6H12.5147V8.28H13.9147V11.28H8.41469V8.28H9.81469V6H4.33469V8.28H5.73469V16.72H4.33469V19H9.81469V16.72H8.41469V13.54H13.9147V16.72H12.5147V19ZM18.5891 23.26V0.659999H33.2291V23.26H18.5891ZM32.5491 12.48C32.5491 10.6533 31.9624 9.08667 30.7891 7.78C29.6291 6.46 28.0091 5.8 25.9291 5.8C23.8891 5.8 22.2691 6.44667 21.0691 7.74C19.8691 9.03333 19.2691 10.6267 19.2691 12.52C19.2691 14.3333 19.8357 15.9 20.9691 17.22C22.1024 18.54 23.7291 19.2 25.8491 19.2C27.9557 19.2 29.5957 18.54 30.7691 17.22C31.9557 15.9 32.5491 14.32 32.5491 12.48ZM29.6491 12.56C29.6491 13.8267 29.3557 14.86 28.7691 15.66C28.1824 16.4467 27.2557 16.84 25.9891 16.84C24.6157 16.84 23.6357 16.4067 23.0491 15.54C22.4624 14.6733 22.1691 13.6467 22.1691 12.46C22.1691 11.2333 22.4691 10.2133 23.0691 9.4C23.6691 8.57333 24.6157 8.16 25.9091 8.16C27.1224 8.16 28.0491 8.54667 28.6891 9.32C29.3291 10.0933 29.6491 11.1733 29.6491 12.56ZM32.8273 23.26V0.659999H51.2273V23.26H32.8273ZM48.8073 8.28H50.4073V6H46.5273L42.1873 14.06H42.1073L37.4873 6H33.6473V8.28H35.2473V16.72H33.8473V19H38.9873V16.72H37.7473V11.52H37.8273L41.5073 17.94H42.6273L46.0473 11.76H46.1273V16.72H44.9873V19H50.2073V16.72H48.8073V8.28ZM50.8352 23.26V0.659999H63.1152V23.26H50.8352ZM51.8152 19H61.8552L62.2552 15.2L59.9752 15L59.5752 16.72H55.8952V13.6H61.3752V11.34H55.8952V8.28H59.4552L59.8552 10L62.1352 9.8L61.7352 6H51.8152V8.28H53.2152V16.72H51.8152V19ZM62.6102 23.26V0.659999H66.7702V23.26H62.6102Z" fill="black"/>
</g>
<defs>
<clipPath id="clip0_2_2">
<rect width="140" height="23" fill="white"/>
</clipPath>
</defs>
</svg>
