<svg width="24" height="25" viewBox="0 0 24 25" fill="none" xmlns="http://www.w3.org/2000/svg">
<g clip-path="url(#clip0_33_2853)">
<path d="M19.9553 16.609C18.6263 15.4723 17.2776 14.7838 15.9649 15.9187L15.181 16.6047C14.6075 17.1027 13.5412 19.4293 9.41853 14.6867C5.29669 9.95019 7.74953 9.21271 8.32389 8.71905L9.11203 8.03222C10.4179 6.89466 9.92506 5.46262 8.98325 3.98851L8.4149 3.09563C7.46879 1.62496 6.43855 0.659107 5.12928 1.79495L4.42184 2.4131C3.84319 2.83464 2.22571 4.20486 1.83336 6.80795C1.36116 9.9313 2.85072 13.508 6.26341 17.4323C9.6718 21.3584 13.0089 23.3305 16.1701 23.2961C18.7972 23.2678 20.3838 21.8581 20.88 21.3455L21.59 20.7265C22.8958 19.5916 22.0845 18.436 20.7546 17.2967L19.9553 16.609Z" fill="url(#paint0_linear_33_2853)"/>
</g>
<defs>
<linearGradient id="paint0_linear_33_2853" x1="11.9999" y1="1.29687" x2="11.9999" y2="23.2966" gradientUnits="userSpaceOnUse">
<stop stop-color="#0888B8"/>
<stop offset="1" stop-color="#25A57E"/>
</linearGradient>
<clipPath id="clip0_33_2853">
<rect width="22" height="22" fill="white" transform="translate(1 1.29688)"/>
</clipPath>
</defs>
</svg>
