<svg width="24" height="25" viewBox="0 0 24 25" fill="none" xmlns="http://www.w3.org/2000/svg">
<g clip-path="url(#clip0_33_2841)">
<path d="M12 12.2974C13.364 12.2974 14.6721 11.7556 15.6365 10.7911C16.601 9.82665 17.1429 8.51855 17.1429 7.15458C17.1429 5.79061 16.601 4.4825 15.6365 3.51803C14.6721 2.55355 13.364 2.01172 12 2.01172C10.636 2.01172 9.32792 2.55355 8.36345 3.51803C7.39898 4.4825 6.85714 5.79061 6.85714 7.15458C6.85714 8.51855 7.39898 9.82665 8.36345 10.7911C9.32792 11.7556 10.636 12.2974 12 12.2974ZM10.1638 14.226C6.20625 14.226 3 17.4323 3 21.3898C3 22.0488 3.53438 22.5831 4.1933 22.5831H19.8067C20.4656 22.5831 21 22.0488 21 21.3898C21 17.4323 17.7938 14.226 13.8362 14.226H10.1638Z" fill="url(#paint0_linear_33_2841)"/>
</g>
<defs>
<linearGradient id="paint0_linear_33_2841" x1="12" y1="2.01172" x2="12" y2="22.5831" gradientUnits="userSpaceOnUse">
<stop stop-color="#0888B8"/>
<stop offset="1" stop-color="#25A57E"/>
</linearGradient>
<clipPath id="clip0_33_2841">
<rect width="18" height="20.5714" fill="white" transform="translate(3 2.01172)"/>
</clipPath>
</defs>
</svg>
