<svg width="36" height="37" viewBox="0 0 36 37" fill="none" xmlns="http://www.w3.org/2000/svg">
<g clip-path="url(#clip0_33_2952)">
<path d="M23.5411 16.6794L15.5879 12.3278C15.1306 12.0776 14.5901 12.0869 14.1418 12.3525C13.6933 12.6184 13.4258 13.088 13.4258 13.6093V22.2379C13.4258 22.7568 13.6916 23.2256 14.1371 23.4918C14.3698 23.6307 14.6277 23.7005 14.8861 23.7005C15.1229 23.7005 15.3602 23.642 15.5785 23.5244L23.5321 19.2477C24.0042 18.9937 24.2989 18.5029 24.3011 17.9665C24.303 17.4301 24.0119 16.9371 23.5411 16.6794ZM15.5354 21.1525V14.7035L21.4796 17.956L15.5354 21.1525Z" fill="white"/>
<path d="M35.7351 11.0917L35.7334 11.0753C35.703 10.7855 35.3995 8.20812 34.1465 6.89718C32.6982 5.35525 31.0563 5.16794 30.2667 5.07812C30.2013 5.07071 30.1414 5.06384 30.0879 5.0567L30.025 5.05011C25.2657 4.70404 18.0782 4.6568 18.0062 4.65652L17.9999 4.65625L17.9936 4.65652C17.9217 4.6568 10.7341 4.70404 5.93204 5.05011L5.8686 5.0567C5.81751 5.06357 5.76121 5.06988 5.69996 5.07702C4.91938 5.16711 3.29506 5.3547 1.84267 6.95238C0.649289 8.24931 0.30432 10.7715 0.268889 11.0549L0.264769 11.0917C0.254058 11.2123 0 14.0828 0 16.9645V19.6583C0 22.54 0.254058 25.4104 0.264769 25.5313L0.266692 25.5494C0.297179 25.8345 0.600401 28.3647 1.84762 29.6761C3.20937 31.1664 4.93119 31.3636 5.85734 31.4696C6.00373 31.4864 6.1298 31.5007 6.21577 31.5158L6.29899 31.5273C9.04693 31.7888 17.6627 31.9176 18.0279 31.9228L18.0389 31.9231L18.0499 31.9228C18.1219 31.9226 25.3091 31.8753 30.0684 31.5292L30.1313 31.5227C30.1914 31.5147 30.259 31.5076 30.3331 31.4999C31.1093 31.4175 32.7248 31.2464 34.1572 29.6704C35.3506 28.3732 35.6958 25.851 35.731 25.5678L35.7351 25.531C35.7458 25.4102 36.0001 22.54 36.0001 19.6583V16.9645C35.9999 14.0828 35.7458 11.2126 35.7351 11.0917ZM33.8902 19.6583C33.8902 22.3255 33.6573 25.0723 33.6353 25.3245C33.5458 26.0191 33.1819 27.6148 32.6004 28.2468C31.7039 29.2331 30.783 29.3309 30.1107 29.402C30.0294 29.4105 29.9541 29.4188 29.886 29.4273C25.2827 29.7602 18.3666 29.8113 18.048 29.8132C17.6907 29.808 9.20101 29.6781 6.53684 29.4306C6.40033 29.4083 6.25284 29.3913 6.09739 29.3737C5.30885 29.2834 4.22944 29.1598 3.39943 28.2468L3.37993 28.2259C2.80864 27.6308 2.45516 26.1386 2.36535 25.3327C2.34859 25.1421 2.10964 22.3628 2.10964 19.6583V16.9645C2.10964 14.3003 2.342 11.5565 2.36452 11.2991C2.47136 10.4809 2.84215 8.98182 3.39943 8.37593C4.32338 7.3597 5.29759 7.24709 5.94193 7.17266C6.00346 7.16552 6.06086 7.15893 6.11387 7.15206C10.7841 6.81753 17.75 6.76781 17.9999 6.76589C18.2499 6.76754 25.2132 6.81753 29.842 7.15206C29.8989 7.1592 29.961 7.16634 30.0277 7.17403C30.6905 7.24956 31.6921 7.36382 32.6114 8.34435L32.6199 8.35341C33.1912 8.94859 33.5447 10.4669 33.6345 11.2889C33.6504 11.4688 33.8902 14.2541 33.8902 16.9645V19.6583Z" fill="white"/>
</g>
<defs>
<clipPath id="clip0_33_2952">
<rect width="36" height="35.9999" fill="white" transform="translate(0 0.296875)"/>
</clipPath>
</defs>
</svg>
